<?xml version="1.0" standalone="no"?>
<!DOCTYPE svg PUBLIC "-//W3C//DTD SVG 20010904//EN"
 "http://www.w3.org/TR/2001/REC-SVG-20010904/DTD/svg10.dtd">
<svg version="1.0" xmlns="http://www.w3.org/2000/svg"
 width="301.000000pt" height="301.000000pt" viewBox="0 0 301.000000 301.000000"
 preserveAspectRatio="xMidYMid meet">
<metadata>
Created by potrace 1.16, written by Peter Selinger 2001-2019
</metadata>
<g transform="translate(0.000000,301.000000) scale(0.100000,-0.100000)"
fill="#000000" stroke="none">
<path d="M1394 2685 c-15 -23 -15 -27 0 -50 16 -24 16 -24 -22 -30 -20 -3 -75
-12 -121 -21 -80 -14 -85 -14 -105 4 -49 45 -112 55 -166 27 -50 -26 -48 -85
4 -85 47 0 46 -16 -2 -39 -42 -20 -53 -21 -72 -11 -35 19 -127 8 -153 -19 -33
-33 -13 -57 47 -54 l46 3 -64 -54 c-63 -54 -64 -55 -117 -49 -46 4 -58 2 -82
-17 -22 -17 -27 -29 -25 -54 2 -25 9 -33 35 -41 l32 -11 -27 -41 c-15 -23 -41
-69 -56 -102 -27 -55 -32 -60 -69 -66 -57 -10 -107 -59 -114 -112 -6 -44 7
-73 32 -73 8 0 28 12 46 28 25 21 31 23 26 9 -4 -10 -10 -36 -13 -58 -5 -30
-14 -43 -40 -58 -45 -27 -75 -77 -72 -121 3 -30 7 -35 28 -35 18 0 30 10 47
40 l22 40 3 -85 3 -85 -37 -42 c-28 -32 -38 -51 -38 -77 0 -60 44 -84 85 -46
l21 20 18 -57 c10 -32 31 -83 46 -113 27 -55 27 -55 9 -85 -26 -41 -25 -118 1
-155 43 -60 90 -46 90 26 l0 44 37 -41 c33 -37 36 -45 34 -94 -3 -85 39 -156
83 -139 20 8 20 44 2 88 l-14 33 73 -54 c68 -51 73 -57 78 -100 6 -56 35 -97
71 -101 36 -4 56 14 56 50 0 25 3 29 18 23 33 -13 184 -55 197 -55 8 0 18 -15
25 -34 13 -39 43 -70 85 -86 83 -32 154 41 79 81 -23 12 -24 14 -7 20 40 16
85 10 104 -15 39 -50 142 -74 170 -40 19 23 0 47 -47 60 -43 13 -43 12 56 41
l65 19 45 -28 c70 -45 140 -34 140 22 0 29 -22 60 -43 60 -6 0 19 20 56 44 36
24 80 55 96 69 27 22 36 24 94 20 78 -7 122 13 143 62 20 49 10 68 -35 63 -20
-3 -45 -8 -55 -13 -13 -6 -7 8 20 43 30 39 45 51 67 51 66 2 141 61 135 105
-4 26 -43 33 -66 13 -38 -32 -39 -24 -8 50 28 67 37 78 62 84 42 8 91 36 98
54 21 54 -4 89 -59 83 l-35 -4 5 45 c3 26 7 79 8 120 3 68 5 74 30 87 29 16
67 80 67 114 0 38 -28 90 -48 90 -22 0 -47 -25 -57 -60 -7 -22 -10 -17 -22 35
-13 56 -12 62 7 96 37 66 21 166 -26 158 -13 -3 -22 -17 -28 -46 l-10 -42 -37
69 c-37 67 -38 71 -24 104 31 75 10 136 -46 136 -30 0 -49 -17 -49 -44 0 -16
-13 -8 -62 40 -35 34 -76 71 -93 83 -25 19 -29 28 -26 61 5 79 -69 162 -132
146 -32 -8 -36 -42 -11 -81 20 -30 16 -31 -39 -4 -34 17 -48 32 -66 71 -25 54
-71 90 -111 86 -37 -4 -37 -35 0 -73 l32 -33 -59 14 c-32 8 -70 14 -84 14 -20
0 -30 8 -39 30 -30 73 -114 104 -146 55z m179 -112 c4 -3 -2 -13 -14 -21 -43
-30 -42 -92 2 -92 30 0 73 25 102 60 30 35 37 36 102 13 45 -15 47 -17 27 -26
-34 -15 -39 -47 -11 -70 19 -15 33 -18 68 -13 25 3 55 13 67 21 21 14 27 12
97 -35 41 -27 80 -56 87 -65 11 -13 8 -15 -18 -15 -58 0 -68 -54 -14 -80 15
-7 54 -14 87 -14 l59 -2 48 -64 c26 -36 45 -66 43 -68 -2 -2 -13 2 -25 8 -11
6 -33 10 -48 8 -24 -3 -27 -7 -27 -38 0 -30 5 -37 35 -52 19 -10 54 -18 76
-18 40 0 42 -1 63 -51 26 -64 26 -73 2 -59 -26 14 -50 3 -57 -26 -9 -35 36
-99 79 -115 32 -11 35 -16 41 -63 3 -28 6 -75 6 -105 l0 -54 -25 27 c-28 30
-38 32 -59 10 -29 -29 -13 -85 38 -133 32 -30 32 -40 5 -127 l-22 -69 -13 32
c-19 45 -50 60 -76 36 -16 -14 -19 -26 -15 -56 5 -33 14 -52 51 -102 6 -8 0
-29 -18 -60 l-28 -47 -23 28 c-22 27 -23 28 -49 11 -31 -21 -40 -53 -33 -117
l6 -49 -71 -66 c-39 -36 -73 -65 -77 -65 -4 0 -5 15 -3 34 3 27 0 37 -17 46
-18 9 -26 7 -50 -18 -27 -26 -51 -85 -51 -124 0 -11 -24 -26 -72 -46 -40 -17
-74 -29 -75 -28 -2 2 4 17 13 34 19 39 5 72 -30 72 -31 0 -83 -59 -91 -104 -6
-28 -12 -35 -37 -40 -65 -13 -73 -9 -73 31 0 34 -3 38 -27 41 -35 4 -82 -21
-110 -58 -24 -33 -15 -32 -155 -8 -35 5 -63 13 -63 17 0 3 9 12 20 19 11 7 20
20 20 30 0 47 -60 55 -134 18 l-48 -24 -61 32 c-69 37 -81 53 -41 58 15 2 33
12 40 23 12 18 11 24 -2 43 -18 27 -83 30 -128 7 -36 -19 -54 -14 -96 30 -30
31 -32 35 -13 35 29 0 46 25 39 55 -8 32 -59 58 -112 58 -37 0 -43 4 -66 41
-14 23 -37 64 -52 93 l-25 51 30 -15 c29 -14 32 -14 50 4 16 16 18 24 10 46
-10 26 -92 87 -118 87 -13 0 -27 45 -39 123 l-6 48 27 -25 c30 -28 54 -33 73
-14 32 32 -10 107 -74 130 -28 10 -34 17 -30 33 3 11 6 40 6 64 l0 45 20 -22
c27 -28 46 -28 65 2 14 20 14 31 5 66 -6 23 -22 53 -34 65 l-23 23 32 87 c39
103 50 118 58 76 8 -38 41 -50 69 -24 17 15 19 26 15 73 -3 30 -9 66 -12 80
-5 21 3 36 48 85 l55 60 -1 -38 c-1 -45 21 -72 52 -62 12 3 26 15 31 26 12 22
16 96 6 126 -5 15 0 24 16 35 13 8 36 23 52 33 28 19 29 19 22 -2 -8 -24 16
-53 44 -53 26 0 78 63 86 104 5 30 12 37 48 50 52 19 156 46 156 40 0 -3 -7
-16 -16 -29 -22 -34 -10 -65 25 -65 31 0 106 58 116 90 6 18 15 20 84 20 43 0
81 -3 84 -7z"/>
<path d="M1672 2248 c-5 -7 -22 -58 -37 -113 -15 -55 -30 -106 -34 -113 -5 -8
-20 19 -41 72 -18 47 -39 91 -47 98 -22 18 -39 -11 -46 -80 -6 -56 7 -229 18
-240 13 -13 14 11 6 100 -5 52 -6 109 -3 127 7 31 9 29 46 -58 38 -90 56 -108
74 -73 5 9 22 66 38 126 27 105 28 108 37 75 9 -32 5 -157 -9 -283 -6 -53 -5
-58 12 -54 26 5 34 48 40 223 4 113 2 156 -8 174 -16 30 -31 36 -46 19z"/>
<path d="M1116 2199 c-3 -17 -6 -64 -6 -103 0 -100 -6 -114 -47 -122 -18 -3
-36 -4 -39 -2 -2 3 -7 51 -11 106 -6 109 -12 128 -37 119 -15 -6 -16 -19 -11
-99 4 -51 8 -103 11 -115 3 -16 0 -23 -11 -23 -8 0 -15 -4 -15 -10 0 -5 7 -10
15 -10 11 0 15 -11 15 -42 0 -52 12 -73 35 -64 15 5 16 14 11 56 -7 53 -8 52
47 64 l27 6 0 -61 c0 -52 2 -60 17 -57 10 2 19 10 20 18 1 8 4 36 8 61 5 36
11 49 28 54 l22 8 -23 4 c-24 5 -24 6 -20 121 3 101 1 117 -13 120 -11 2 -18
-7 -23 -29z"/>
<path d="M1772 2037 c2 -114 7 -200 13 -204 13 -12 145 -4 145 8 0 5 -25 9
-55 9 l-55 0 0 60 0 60 34 0 c19 0 38 5 41 10 4 6 -9 10 -33 10 l-39 0 -7 53
c-3 28 -6 76 -6 105 l0 52 54 0 c30 0 58 5 61 10 4 6 -13 10 -43 10 -27 0 -64
3 -81 6 l-32 7 3 -196z"/>
<path d="M1272 2195 c-80 -67 -96 -272 -27 -341 29 -29 69 -31 112 -4 47 28
66 73 71 166 5 93 -7 140 -45 178 -33 33 -73 33 -111 1z m115 -50 c44 -77 22
-243 -35 -274 -12 -6 -32 -11 -47 -11 -35 0 -55 49 -55 133 0 166 79 254 137
152z"/>
<path d="M1995 1905 c-20 -20 -42 -61 -55 -99 l-21 -64 -39 5 c-50 7 -54 -12
-5 -21 40 -8 39 -3 24 -99 -15 -102 -72 -177 -133 -177 -18 0 -41 33 -50 71
-5 24 -2 27 26 33 44 9 68 33 68 71 0 58 -50 81 -110 50 -32 -16 -53 -51 -64
-102 -7 -32 -73 -102 -99 -104 -44 -4 -67 18 -67 68 0 27 4 33 23 33 27 1 50
17 66 48 9 18 9 28 -1 50 -11 22 -21 28 -54 30 -55 4 -97 -31 -113 -92 -8 -34
-17 -46 -40 -56 -39 -16 -53 -6 -46 33 7 39 -6 60 -31 55 -23 -4 -30 -49 -14
-88 10 -24 8 -36 -9 -74 -23 -54 -41 -59 -41 -13 0 51 -19 105 -43 122 -12 8
-24 15 -28 15 -4 0 -19 -29 -34 -65 -16 -36 -33 -64 -39 -62 -7 2 -10 35 -8
94 3 73 1 93 -13 106 -26 27 -50 21 -60 -15 -10 -33 -83 -98 -111 -98 -7 0
-27 27 -44 60 -29 57 -30 62 -15 90 23 45 19 78 -10 92 -22 10 -30 8 -53 -9
-24 -18 -27 -27 -27 -74 1 -35 11 -79 30 -127 l28 -72 -41 -36 c-47 -40 -54
-74 -22 -102 26 -22 66 -30 110 -21 51 12 63 33 57 109 l-5 65 49 32 49 31 1
-46 c0 -56 18 -111 40 -125 23 -14 64 16 86 64 10 21 21 39 26 39 4 0 7 -23 7
-50 0 -60 23 -110 49 -110 26 0 67 51 87 109 15 42 21 47 48 48 17 1 38 3 46
5 9 2 16 -6 18 -19 2 -12 17 -34 35 -49 44 -37 111 -31 168 16 22 17 41 30 43
29 1 -2 7 -17 14 -32 7 -17 27 -34 49 -43 47 -20 109 -5 149 37 15 16 31 29
36 29 4 0 8 -19 8 -42 0 -52 30 -120 61 -142 66 -46 148 6 197 127 16 40 32
84 36 99 10 43 -12 42 -24 -1 -22 -82 -78 -184 -111 -202 -29 -15 -56 -2 -68
33 -12 34 -14 163 -5 243 l6 50 82 0 c86 0 146 21 146 51 0 12 -7 11 -32 -8
-27 -18 -46 -23 -100 -23 -36 0 -69 3 -72 6 -4 3 10 32 29 65 51 84 67 148 43
172 -21 21 -50 13 -83 -23z"/>
<path d="M1651 1243 c-11 -38 -28 -94 -37 -126 -9 -32 -17 -57 -19 -55 -2 2
-20 45 -40 96 -49 121 -75 122 -88 2 -6 -54 7 -227 18 -238 13 -13 14 11 5
105 -5 55 -6 112 -2 128 7 26 11 21 47 -64 51 -124 60 -120 105 38 30 109 35
120 43 95 4 -16 5 -81 1 -144 -11 -181 -11 -195 6 -195 21 0 30 51 37 211 6
156 -4 214 -37 214 -15 0 -24 -15 -39 -67z"/>
<path d="M1116 1249 c-3 -17 -6 -64 -6 -103 0 -100 -5 -113 -47 -121 -19 -3
-37 -4 -39 -2 -3 2 -7 50 -11 106 -6 104 -17 137 -41 122 -11 -6 -11 -30 -4
-117 7 -88 7 -111 -4 -120 -18 -15 -18 -24 1 -24 11 0 15 -11 15 -42 0 -52 12
-73 35 -64 15 5 17 15 11 61 -5 48 -4 55 11 55 10 0 28 3 40 6 21 6 22 2 25
-52 2 -44 7 -59 18 -59 9 0 16 11 18 30 6 72 13 94 32 100 11 4 18 10 15 15
-3 5 -13 6 -22 3 -14 -6 -15 6 -9 115 7 117 7 122 -12 122 -14 0 -21 -9 -26
-31z"/>
<path d="M1770 1104 c0 -99 3 -189 6 -201 6 -21 12 -23 80 -23 43 0 74 4 74
10 0 6 -25 10 -55 10 l-55 0 0 60 0 60 34 0 c19 0 38 5 41 10 4 6 -9 10 -33
10 l-39 0 -7 53 c-3 28 -6 76 -6 105 l0 52 54 0 c30 0 58 5 61 10 4 6 -13 10
-43 10 -27 0 -64 3 -81 6 l-31 7 0 -179z"/>
<path d="M1261 1235 c-73 -83 -82 -265 -16 -331 46 -46 126 -19 160 52 27 57
32 182 10 239 -31 83 -100 101 -154 40z m123 -28 c18 -24 21 -43 21 -120 0
-69 -5 -100 -18 -125 -34 -63 -106 -69 -126 -11 -25 73 -5 226 35 270 24 27
62 21 88 -14z"/>
</g>
</svg>
