<?xml version="1.0" standalone="no"?>
<!DOCTYPE svg PUBLIC "-//W3C//DTD SVG 20010904//EN"
 "http://www.w3.org/TR/2001/REC-SVG-20010904/DTD/svg10.dtd">
<svg version="1.0" xmlns="http://www.w3.org/2000/svg"
 width="736.000000pt" height="736.000000pt" viewBox="0 0 736.000000 736.000000"
 preserveAspectRatio="xMidYMid meet">

<g transform="translate(0.000000,736.000000) scale(0.100000,-0.100000)"
fill="#000000" stroke="none">
<path d="M2485 6910 c-3 -6 -4 -18 -1 -28 3 -9 15 -78 26 -152 11 -74 39 -254
61 -400 22 -146 53 -353 70 -460 43 -285 62 -440 56 -446 -3 -4 -63 1 -134 10
-70 10 -162 21 -203 26 -330 40 -675 83 -846 106 -133 18 -168 16 -171 -6 -2
-8 175 -231 393 -495 500 -605 557 -676 553 -679 -2 -2 -177 -40 -389 -85
-212 -45 -401 -85 -420 -89 -73 -16 -65 -25 359 -407 220 -198 400 -362 400
-365 0 -3 -128 -95 -285 -205 -156 -110 -284 -205 -284 -212 0 -6 4 -14 8 -17
4 -2 149 -43 322 -91 173 -47 320 -87 326 -90 14 -4 20 27 -90 -495 -18 -83
-20 -116 -8 -124 4 -2 28 -1 52 4 231 45 327 61 379 66 l61 6 0 -165 c0 -97 4
-168 10 -172 5 -3 44 8 85 26 42 17 77 30 79 28 171 -247 388 -413 632 -483
111 -33 384 -50 400 -25 5 8 11 104 14 214 l5 200 80 7 c173 16 323 58 490
138 119 58 180 102 299 218 117 114 177 187 233 283 25 43 51 83 57 88 6 5 37
16 68 25 111 32 210 156 225 284 6 55 -15 134 -47 175 -11 13 -21 35 -24 49
-5 28 25 215 48 303 21 76 20 103 -4 200 -10 44 -26 157 -35 250 -28 299 -34
330 -106 485 -54 114 -84 160 -221 332 -80 101 -142 167 -194 208 -88 70 -114
85 -179 101 -29 7 -73 32 -112 61 -74 57 -120 79 -236 114 -149 45 -217 57
-285 51 l-65 -6 8 212 c4 116 11 235 16 262 5 28 15 86 23 130 14 75 13 90
-10 255 -28 199 -37 228 -60 209 -8 -6 -54 -69 -101 -138 -48 -69 -110 -159
-139 -198 l-52 -73 -424 378 c-233 207 -483 430 -555 495 -72 64 -136 117
-141 117 -6 0 -14 -5 -17 -10z m195 -195 c35 -33 105 -98 155 -145 110 -104
640 -598 711 -663 28 -26 56 -47 61 -47 5 0 31 28 57 61 61 78 218 261 221
257 2 -2 0 -134 -3 -294 l-5 -290 -136 -12 c-75 -6 -180 -23 -234 -36 -105
-27 -269 -100 -358 -160 -115 -77 -235 -217 -301 -351 -67 -134 -151 -389
-182 -550 -37 -198 -70 -716 -62 -990 l6 -210 -55 -24 c-60 -26 -118 -82 -143
-140 -25 -57 -22 -184 6 -247 38 -84 136 -164 220 -180 38 -7 46 -22 56 -106
4 -32 18 -99 32 -149 13 -50 24 -94 24 -98 0 -14 -467 -77 -479 -65 -3 3 25
125 62 272 37 147 67 277 67 290 0 30 -6 32 -337 134 -150 45 -272 86 -270 90
1 4 126 83 277 176 151 93 276 175 278 184 2 9 -159 154 -422 379 -234 200
-422 366 -418 370 4 3 54 14 112 23 58 9 159 26 225 37 368 60 517 87 527 97
8 8 1 23 -24 54 -51 64 -101 129 -482 633 -192 253 -358 470 -369 483 l-20 22
24 0 c13 0 146 -18 294 -40 849 -123 934 -135 946 -123 9 9 5 59 -15 210 -14
109 -42 335 -61 503 -20 168 -47 398 -60 512 -14 113 -25 210 -25 213 0 10 23
-9 100 -80z m1200 -1248 c0 -41 -3 -149 -7 -240 l-6 -167 -26 0 c-15 0 -82
-12 -151 -26 -77 -16 -137 -23 -158 -19 -21 4 -32 3 -28 -4 14 -22 129 -23
223 -2 51 12 104 21 118 21 22 0 25 -4 25 -40 0 -35 -3 -40 -27 -45 -16 -4
-55 -14 -88 -23 -44 -12 -122 -17 -290 -22 -233 -5 -240 -8 -62 -31 91 -11
277 0 350 22 17 5 51 14 75 18 l43 9 -3 -82 -3 -81 -75 -17 c-181 -43 -268
-50 -591 -42 -272 6 -308 5 -337 -10 -17 -9 -34 -27 -38 -40 -18 -75 23 -104
163 -116 445 -38 685 -38 806 0 38 12 71 19 74 16 3 -3 0 -265 -6 -583 -6
-318 -11 -676 -11 -796 0 -240 -2 -247 -52 -166 -44 72 -59 148 -65 327 -4
114 -9 162 -17 159 -7 -2 -12 -54 -14 -155 -4 -220 22 -325 103 -419 l35 -41
0 -125 0 -124 -128 -6 c-70 -3 -161 -11 -202 -17 -177 -27 -429 -126 -430
-169 0 -18 17 -13 180 47 174 65 206 71 215 43 14 -46 86 -121 154 -161 74
-43 72 -40 97 -145 14 -61 46 -121 85 -160 l39 -41 15 -214 c9 -118 17 -226
18 -240 2 -24 -1 -25 -53 -28 -77 -5 -240 16 -313 39 -247 79 -500 295 -616
528 -40 80 -110 284 -137 398 -23 100 -71 456 -90 665 -29 329 -18 830 27
1208 30 252 157 613 273 774 91 126 213 220 382 294 134 58 314 97 472 101
l52 1 0 -73z m-12 -814 l-3 -67 -75 -24 c-67 -22 -94 -25 -255 -26 -193 -1
-556 19 -642 35 -54 11 -63 21 -55 67 3 12 13 27 24 33 26 14 390 12 518 -2
113 -13 207 -6 355 25 61 13 116 24 123 25 10 1 12 -16 10 -66z m234 38 c273
-48 478 -153 674 -346 272 -267 387 -588 386 -1075 0 -360 -51 -543 -209 -755
-234 -314 -544 -487 -950 -531 l-63 -7 0 236 0 237 173 2 172 3 3 32 c3 25 -3
36 -30 56 -73 55 -194 97 -277 97 l-41 0 0 154 c0 153 0 155 25 174 29 23 45
60 45 104 0 23 -10 40 -40 68 -38 35 -40 40 -40 94 0 31 -7 92 -16 134 -21 97
-22 181 -6 562 6 168 15 412 18 543 l6 237 28 0 c15 0 79 -9 142 -19z m-1478
-1558 c4 -54 16 -165 27 -247 11 -82 18 -150 16 -152 -2 -2 -25 3 -51 12 -63
22 -150 106 -165 160 -14 49 -14 138 0 187 5 21 23 53 40 71 28 32 107 78 120
70 3 -2 9 -47 13 -101z m2645 11 c102 -87 108 -200 19 -326 -18 -26 -154 -115
-162 -107 -2 2 9 42 24 89 31 93 50 207 50 304 0 89 6 93 69 40z m-1303 -27
c11 -33 5 -90 -11 -107 -13 -12 -15 -7 -15 47 0 34 -3 69 -6 77 -5 12 -2 15
10 10 8 -3 18 -16 22 -27z m177 -550 c71 -32 119 -65 112 -78 -4 -5 -76 -9
-161 -9 l-154 0 0 61 0 62 73 -5 c47 -4 92 -14 130 -31z m-303 -218 c0 -206
-2 -240 -14 -230 -18 15 -61 107 -76 162 -14 53 -23 65 -75 97 -52 32 -91 67
-126 116 -48 65 -46 66 118 85 37 5 92 9 121 10 l52 1 0 -241z m-974 -305 c4
-10 -13 -19 -95 -52 -11 -4 -12 13 -7 104 10 159 12 161 58 53 21 -52 41 -99
44 -105z"/>
<path d="M3480 4447 c0 -8 19 -22 41 -33 64 -28 151 -121 193 -204 20 -40 36
-83 36 -95 0 -34 -46 -49 -128 -42 -76 7 -424 -8 -552 -24 -47 -6 -127 -19
-177 -30 -51 -10 -98 -19 -104 -19 -15 0 -4 117 17 182 8 26 35 73 60 104 33
44 41 60 33 70 -17 21 -42 2 -87 -68 -106 -165 -108 -328 -8 -523 91 -178 270
-295 452 -295 83 0 196 24 261 56 63 30 169 131 206 195 59 100 84 305 56 441
-31 148 -172 298 -281 298 -10 0 -18 -6 -18 -13z m273 -424 c10 -18 -12 -156
-33 -212 -39 -106 -143 -206 -261 -253 -82 -33 -267 -32 -364 1 -38 13 -83 30
-98 38 -79 40 -158 149 -191 262 -26 90 -31 85 112 114 70 15 148 30 174 33
l46 7 36 -71 c20 -39 40 -74 46 -77 6 -4 29 5 52 20 37 25 39 29 33 62 -4 24
-1 42 10 59 l15 24 210 0 c115 0 211 -3 213 -7z"/>
<path d="M3540 3369 c-37 -31 -128 -75 -195 -94 -125 -37 -349 -3 -443 66 -59
43 -52 23 11 -29 68 -56 127 -73 268 -79 89 -4 129 -2 172 11 52 15 189 98
217 131 18 22 -1 18 -30 -6z"/>
<path d="M2972 2537 c-58 -128 -45 -182 59 -243 55 -33 83 -37 38 -7 -13 9
-41 33 -61 54 -35 33 -38 41 -38 90 0 34 10 76 25 114 28 68 27 65 18 65 -5
-1 -23 -33 -41 -73z"/>
<path d="M4238 4372 c-31 -3 -39 -8 -44 -28 -4 -14 -3 -29 2 -34 5 -4 63 -10
129 -12 110 -4 130 -7 244 -47 123 -42 151 -45 151 -17 0 29 -105 70 -279 110
-126 29 -154 33 -203 28z"/>
<path d="M4285 4129 c-99 -32 -192 -102 -252 -192 -74 -109 -98 -192 -97 -327
2 -208 61 -317 224 -408 256 -143 621 -38 744 213 48 98 61 286 28 393 -37
117 -139 236 -248 287 -114 54 -291 69 -399 34z m280 -34 c110 -29 224 -115
270 -205 77 -149 84 -338 19 -477 -32 -66 -115 -143 -202 -185 -67 -33 -67
-33 -223 -33 l-155 0 -75 37 c-94 47 -157 101 -189 164 -23 45 -25 60 -25 174
1 194 39 305 137 402 59 59 124 102 186 124 51 18 185 17 257 -1z"/>
<path d="M4481 3661 c-7 -5 -23 -6 -35 -4 -39 8 -42 -25 -5 -63 35 -36 51 -35
68 2 21 48 5 85 -28 65z"/>
<path d="M5200 2575 c0 -43 -23 -44 -28 -1 -4 31 -25 30 -30 -2 -5 -35 15 -62
48 -62 20 0 30 -5 30 -15 0 -8 7 -15 15 -15 18 0 18 10 2 74 -16 61 -37 73
-37 21z"/>
<path d="M5079 2545 c-11 -25 -19 -53 -17 -62 4 -20 42 -31 81 -24 43 9 37 25
-10 31 l-42 5 19 42 c10 23 16 44 12 47 -13 14 -24 3 -43 -39z"/>
</g>
</svg>
